<svg width="17" height="23" viewBox="0 0 17 23" fill="none" xmlns="http://www.w3.org/2000/svg">
<path d="M8.94737 12.9059H3.07664L3.04524 9.65179H7.97415C8.84272 9.65179 9.55433 9.54121 10.109 9.32006C10.6636 9.08837 11.0769 8.75664 11.349 8.32486C11.6316 7.88256 11.7729 7.34547 11.7729 6.7136C11.7729 5.99748 11.6368 5.41827 11.3647 4.97596C11.1031 4.53365 10.6898 4.21245 10.1247 4.01236C9.57002 3.81227 8.85319 3.71223 7.97415 3.71223H4.70914V23H0V0H7.97415C9.30317 0 10.4909 0.126374 11.5374 0.379121C12.5943 0.631868 13.4891 1.01625 14.2216 1.53228C14.9541 2.04831 15.514 2.70124 15.9012 3.49107C16.2884 4.27038 16.482 5.19712 16.482 6.27129C16.482 7.21909 16.2675 8.09318 15.8384 8.89354C15.4198 9.69391 14.7553 10.3468 13.8449 10.8523C12.9449 11.3578 11.7676 11.6369 10.313 11.6896L8.94737 12.9059ZM8.74331 23H1.78947L3.62604 19.3036H8.74331C9.57002 19.3036 10.245 19.1719 10.7682 18.9087C11.2915 18.6348 11.6787 18.2663 11.9298 17.8029C12.181 17.3395 12.3066 16.8077 12.3066 16.2074C12.3066 15.5334 12.1914 14.9489 11.9612 14.454C11.7415 13.959 11.3857 13.5799 10.8938 13.3166C10.402 13.0428 9.75315 12.9059 8.94737 12.9059H4.4109L4.44229 9.65179H10.0933L11.1764 10.9313C12.5682 10.9103 13.6879 11.1577 14.5356 11.6738C15.3937 12.1793 16.0163 12.8375 16.4035 13.6484C16.8012 14.4592 17 15.3281 17 16.2548C17 17.7292 16.6808 18.9718 16.0425 19.9828C15.4041 20.9833 14.4675 21.7363 13.2327 22.2418C12.0083 22.7473 10.5119 23 8.74331 23Z" fill="#3D7AFF"/>
</svg>
