<svg width="33" height="17" viewBox="0 0 33 17" fill="none" xmlns="http://www.w3.org/2000/svg">
<path d="M13.8563 17L0 10.1873V6.81273L13.8563 0V2.99251L4.11858 7.70412C3.71417 7.89513 3.33105 8.05431 2.96921 8.18165C2.60737 8.30899 2.33067 8.39388 2.13911 8.43633C2.33067 8.5 2.61801 8.5955 3.00113 8.72285C3.38426 8.85019 3.75674 9.00936 4.11858 9.20037L13.8563 13.912V17Z" fill="#3D7AFF"/>
<path d="M19.1437 17V14.0075L28.8814 9.32771C29.2858 9.1367 29.669 8.97753 30.0308 8.85019C30.3926 8.70162 30.6693 8.60612 30.8609 8.56367C30.6693 8.52122 30.382 8.43633 29.9989 8.30899C29.6157 8.16042 29.2433 7.99064 28.8814 7.79962L19.1437 3.08802V0L33 6.81273V10.1873L19.1437 17Z" fill="#3D7AFF"/>
</svg>
