<svg width="21" height="21" viewBox="0 0 21 21" fill="none" xmlns="http://www.w3.org/2000/svg">
<path d="M18.8768 7.43107V2.12315H13.5689C12.9826 2.12315 12.5073 1.64787 12.5073 1.06157C12.5073 0.475277 12.9826 0 13.5689 0H19.9384C20.5247 1.31325e-07 21 0.475277 21 1.06157V7.43107C21 8.01737 20.5247 8.49265 19.9384 8.49265C19.3521 8.49265 18.8768 8.01737 18.8768 7.43107Z" fill="white"/>
<path d="M19.1986 0.309043C19.6107 -0.103016 20.2788 -0.103013 20.6909 0.309043C21.1029 0.721104 21.1029 1.38919 20.6909 1.80125L10.1394 12.3527C9.72733 12.7648 9.05924 12.7648 8.64718 12.3527C8.23512 11.9407 8.23512 11.2726 8.64718 10.8605L19.1986 0.309043Z" fill="white"/>
<path d="M0 18.9V2.09998C2.70512e-06 1.54303 0.221257 1.00891 0.615081 0.615081C1.00891 0.221257 1.54303 2.70496e-06 2.09998 0H9.45001C10.0299 5.71519e-06 10.5 0.470095 10.5 1.04999C10.5 1.62989 10.0299 2.09998 9.45001 2.09998H2.09998V18.9H18.9V11.55C18.9 10.9701 19.3701 10.5 19.95 10.5C20.5299 10.5 21 10.9701 21 11.55V18.9C21 19.457 20.7787 19.9911 20.3849 20.3849C19.9911 20.7787 19.457 21 18.9 21H2.09998C1.54303 21 1.00891 20.7787 0.615081 20.3849C0.221256 19.9911 2.8959e-06 19.457 0 18.9Z" fill="white"/>
</svg>
