<svg width="14" height="22" viewBox="0 0 14 22" fill="none" xmlns="http://www.w3.org/2000/svg">
<path d="M8.81195 21.3997L8.64159 22H0L0.216814 21.3997C1.08407 21.3781 1.65708 21.3024 1.93584 21.1726C2.39012 20.9887 2.72566 20.7345 2.94248 20.41C3.28319 19.9017 3.63422 18.9931 3.99558 17.6844L7.65044 4.41298C7.96018 3.30973 8.11504 2.47689 8.11504 1.91445C8.11504 1.63323 8.04794 1.39528 7.91372 1.20059C7.7795 1.0059 7.57301 0.859882 7.29425 0.762537C7.02581 0.654376 6.4941 0.600295 5.69911 0.600295L5.88496 0H14L13.8296 0.600295C13.1689 0.589479 12.6785 0.665192 12.3584 0.827434C11.8938 1.04376 11.5376 1.35202 11.2898 1.75221C11.0524 2.15241 10.7426 3.03933 10.3606 4.41298L6.72124 17.6844C6.39086 18.9066 6.22566 19.6853 6.22566 20.0206C6.22566 20.2911 6.28761 20.5236 6.4115 20.7183C6.54572 20.9022 6.75221 21.0482 7.03097 21.1563C7.32006 21.2537 7.91372 21.3348 8.81195 21.3997Z" fill="#3D7AFF"/>
</svg>
