<svg width="36" height="36" viewBox="0 0 36 36" fill="none" xmlns="http://www.w3.org/2000/svg">
<path d="M31.6111 8.66667C31.6111 7.54559 31.6096 6.82172 31.5645 6.27079C31.5214 5.74256 31.4482 5.54671 31.3992 5.45059L31.3991 5.45036C31.2128 5.0847 30.9153 4.78727 30.5494 4.60082V4.60077C30.4533 4.55181 30.2575 4.47856 29.7292 4.43539C29.1783 4.39038 28.4544 4.38885 27.3333 4.38885H8.66668C7.54561 4.38885 6.82172 4.39038 6.2708 4.43539C5.74257 4.47855 5.54673 4.55184 5.4506 4.60082H5.45054C5.08469 4.78723 4.78724 5.08468 4.60083 5.45053V5.45059C4.55185 5.54672 4.47856 5.74255 4.4354 6.27079C4.39039 6.82172 4.38886 7.5456 4.38886 8.66667V25.6424L8.91824 21.1686C9.6547 20.4059 10.2878 19.749 10.852 19.2533C11.4371 18.7392 12.0748 18.2815 12.864 18.0132L12.9192 17.9948C14.0802 17.613 15.3323 17.6055 16.4984 17.9738L16.4986 17.9738C17.2934 18.225 17.9409 18.6688 18.537 19.1701C19.1159 19.657 19.768 20.3058 20.5276 21.0592L22.4033 22.9191C22.8726 22.4592 23.2979 22.0556 23.6896 21.7262C24.2863 21.2243 24.9345 20.7801 25.7303 20.529L25.786 20.5117C26.9563 20.1553 28.2092 20.176 29.3677 20.5709C30.1575 20.8401 30.7954 21.2992 31.3804 21.8146C31.456 21.8812 31.5329 21.9508 31.6111 22.0231V8.66667ZM15.3272 21.6821C14.9321 21.5573 14.5076 21.5619 14.1157 21.6952C14.0131 21.73 13.8222 21.8203 13.4188 22.1747C12.9984 22.544 12.488 23.0704 11.7 23.8864C11.6894 23.8974 11.6786 23.9083 11.6677 23.919L4.73197 30.7695C4.90745 31.0243 5.1418 31.2345 5.4163 31.3812L5.45037 31.3991L5.4506 31.3992C5.54672 31.4482 5.74257 31.5214 6.2708 31.5645C6.82172 31.6096 7.5456 31.6111 8.66668 31.6111H25.598L21.0257 27.0298H21.0256L17.7893 23.8206L17.7892 23.8205C16.9838 23.0217 16.4621 22.5065 16.0339 22.1463C15.6231 21.8008 15.4303 21.7147 15.3272 21.6821ZM28.1129 24.2517C27.7324 24.122 27.322 24.1134 26.9376 24.2263L26.9005 24.2377C26.7972 24.2703 26.6041 24.3564 26.1926 24.7025C25.9076 24.9421 25.5814 25.2504 25.1579 25.665L30.7579 31.276C31.0284 31.0925 31.2495 30.8431 31.3991 30.5496L31.3992 30.5494C31.4481 30.4533 31.5214 30.2575 31.5645 29.7292C31.6068 29.2127 31.6106 28.5441 31.611 27.5388L30.5495 26.4704C30.5424 26.4632 30.5353 26.456 30.5283 26.4488C29.7404 25.6307 29.23 25.1029 28.8097 24.7326C28.4061 24.3771 28.2152 24.2867 28.1129 24.2518L28.1129 24.2517ZM25.7778 12.1664C25.7778 11.0925 24.9073 10.222 23.8333 10.222C22.7594 10.222 21.8889 11.0925 21.8889 12.1664C21.8889 13.2404 22.7594 14.1109 23.8333 14.1109C24.9073 14.1109 25.7778 13.2404 25.7778 12.1664ZM29.6667 12.1664C29.6667 15.3882 27.055 17.9998 23.8333 17.9998C20.6116 17.9998 18 15.3882 18 12.1664C18 8.9448 20.6116 6.33311 23.8333 6.33311C27.0551 6.33312 29.6667 8.9448 29.6667 12.1664ZM35.5 27.3333C35.5 28.3902 35.5015 29.2998 35.4405 30.0459C35.3777 30.8146 35.2391 31.5793 34.8641 32.315L34.8641 32.315C34.3049 33.4125 33.4124 34.305 32.3148 34.8642L32.3148 34.8641C31.7018 35.1766 31.0715 35.324 30.4359 35.4012L30.4359 35.4012C29.5957 35.5034 28.5538 35.5 27.3333 35.5H8.66668C7.60977 35.5 6.7001 35.5015 5.95406 35.4405C5.18534 35.3777 4.42073 35.239 3.68499 34.8641V34.8641C2.58726 34.3048 1.69497 33.4123 1.13581 32.315H1.13576C0.825726 31.7065 0.678091 31.0809 0.600274 30.4489L0.600331 30.4489C0.496504 29.6057 0.500014 28.5594 0.500014 27.3333V8.66667C0.500014 7.60977 0.498477 6.70014 0.55943 5.95411C0.622236 5.1854 0.760945 4.42082 1.13581 3.68509H1.13576C1.69501 2.58744 2.58745 1.695 3.6851 1.13575V1.1358C4.42083 0.760936 5.18541 0.622226 5.95412 0.559419C6.70014 0.498468 7.60978 0.500004 8.66668 0.500004H27.3333C28.3902 0.500004 29.2999 0.498467 30.0459 0.559419C30.8146 0.622226 31.5793 0.760893 32.315 1.1358L32.315 1.13586C33.4123 1.69502 34.3049 2.58724 34.8641 3.68498L34.8986 3.75408C35.2476 4.46855 35.3797 5.20941 35.4405 5.95411C35.5015 6.70014 35.5 7.60978 35.5 8.66667V27.3333Z" fill="#3D7AFF" stroke="#161616" stroke-linecap="round" stroke-linejoin="round"/>
</svg>
