<svg width="40" height="22" viewBox="0 0 40 22" fill="none" xmlns="http://www.w3.org/2000/svg">
<path d="M0 11C0 4.92487 4.88418 0 10.9091 0H11.8182C12.8223 0 13.6364 0.820793 13.6364 1.83332C13.6364 2.84584 12.8223 3.66663 11.8182 3.66663H10.9091C6.89248 3.66663 3.63633 6.94992 3.63633 11C3.63634 15.05 6.8925 18.3333 10.9091 18.3333H14.5454C18.562 18.3333 21.8182 15.05 21.8182 11C21.8182 9.98748 22.6322 9.16663 23.6364 9.16663C24.6405 9.16663 25.4545 9.98748 25.4545 11C25.4545 17.0751 20.5703 22 14.5454 22H10.9091C4.88418 22 9.78356e-06 17.0751 0 11ZM36.3636 11C36.3636 6.94992 33.1075 3.66663 29.0909 3.66663H25.4545C21.4379 3.66664 18.1818 6.94993 18.1818 11C18.1818 12.0125 17.3678 12.8333 16.3636 12.8333C15.3595 12.8333 14.5454 12.0125 14.5454 11C14.5454 4.92488 19.4296 9.18473e-06 25.4545 0H29.0909C35.1158 5.67107e-07 40 4.92487 40 11C40 17.0751 35.1158 22 29.0909 22H28.1818C27.1776 22 26.3636 21.1791 26.3636 20.1666C26.3636 19.1541 27.1777 18.3333 28.1818 18.3333H29.0909C33.1075 18.3333 36.3636 15.05 36.3636 11Z" fill="#3D7AFF"/>
</svg>
