<svg width="17" height="17" viewBox="0 0 17 17" fill="none" xmlns="http://www.w3.org/2000/svg">
<path d="M7.20993 0V16.8615H4.30426V3.30075L0 4.69722V2.40054L6.86028 0H7.20993Z" fill="#3D7AFF"/>
<path d="M13.6 15.4766C13.6 15.0457 13.7527 14.6841 14.0582 14.3917C14.3636 14.0917 14.7775 13.9416 15.3 13.9416C15.8305 13.9416 16.2444 14.0917 16.5418 14.3917C16.8473 14.6841 17 15.0457 17 15.4766C17 15.9074 16.8473 16.2691 16.5418 16.5614C16.2444 16.8538 15.8305 17 15.3 17C14.7775 17 14.3636 16.8538 14.0582 16.5614C13.7527 16.2691 13.6 15.9074 13.6 15.4766Z" fill="#3D7AFF"/>
</svg>
