<svg width="20" height="23" viewBox="0 0 20 23" fill="none" xmlns="http://www.w3.org/2000/svg">
<path d="M3.40136 0.0085957C4.1553 -0.0516297 4.85694 0.213079 5.50485 0.53782C6.16132 0.866847 6.95632 1.36207 7.9204 1.96085L16.2552 7.13755C17.1221 7.67599 17.845 8.12348 18.3822 8.52915C18.9185 8.93417 19.422 9.40568 19.701 10.0525L19.7194 10.096C20.0996 11.0095 20.0934 12.0376 19.7011 12.9475L19.701 12.9476C19.422 13.5944 18.9185 14.0659 18.3822 14.4709C17.9121 14.8258 17.3 15.2128 16.5735 15.6647L7.9204 21.0392C6.95634 21.638 6.16132 22.1332 5.50485 22.4623C4.85694 22.787 4.15522 23.0517 3.40118 22.9914C2.33883 22.9065 1.36485 22.3702 0.72921 21.5197C0.278202 20.9163 0.132185 20.1847 0.0659027 19.4666C-0.00125458 18.739 1.63533e-06 17.8066 1.63761e-06 16.6768V6.32329C1.63761e-06 5.1935 -0.00125562 4.26108 0.0659027 3.53349C0.132186 2.81538 0.278187 2.08382 0.729174 1.4804C1.36477 0.629954 2.33882 0.0934997 3.40136 0.0085957ZM2.4651 16.6768C2.4651 17.8551 2.46634 18.6538 2.52071 19.2428C2.5725 19.8039 2.66106 19.989 2.70086 20.0487L2.70816 20.059L2.70819 20.0591C2.91997 20.3425 3.24458 20.5212 3.59888 20.5495L3.59907 20.5496C3.6577 20.5543 3.85472 20.5457 4.39475 20.275C4.92623 20.0086 5.60841 19.5864 6.6139 18.9619L14.9487 13.7851C15.8564 13.2214 16.4645 12.8422 16.8907 12.5204C17.3177 12.1979 17.4099 12.0411 17.4352 11.9824C17.5681 11.6743 17.5681 11.3256 17.4352 11.0177V11.0176C17.4099 10.9588 17.3176 10.802 16.8907 10.4796C16.4645 10.1578 15.8564 9.77864 14.9487 9.21493L6.6139 4.03821C5.60842 3.4137 4.92624 2.99144 4.39475 2.72505C3.85472 2.45438 3.65762 2.4457 3.59888 2.45039C3.24469 2.4787 2.92004 2.65757 2.70819 2.94104C2.67305 2.98807 2.57595 3.15878 2.52071 3.75727C2.46634 4.34633 2.4651 5.14499 2.4651 6.32329V16.6768Z" fill="white"/>
</svg>
