<svg width="27" height="22" viewBox="0 0 27 22" fill="none" xmlns="http://www.w3.org/2000/svg">
<path d="M11.5804 0L7.42657 15.5294L6.04196 9.70588C7.84615 9.70588 9.31468 10.2451 10.4476 11.3235C11.5804 12.402 12.1469 13.8902 12.1469 15.7882C12.1469 17.6431 11.5594 19.1529 10.3846 20.3176C9.25175 21.4392 7.82517 22 6.10489 22C4.34266 22 2.87413 21.4392 1.6993 20.3176C0.566434 19.1529 0 17.6431 0 15.7882C0 15.2274 0.041958 14.6882 0.125874 14.1706C0.20979 13.6098 0.377622 12.9627 0.629371 12.2294C0.881119 11.4961 1.23776 10.5255 1.6993 9.31765L5.34965 0H11.5804ZM26.4336 0L22.2797 15.5294L20.8951 9.70588C22.6993 9.70588 24.1678 10.2451 25.3007 11.3235C26.4336 12.402 27 13.8902 27 15.7882C27 17.6431 26.4126 19.1529 25.2378 20.3176C24.1049 21.4392 22.6783 22 20.958 22C19.1958 22 17.7273 21.4392 16.5524 20.3176C15.4196 19.1529 14.8531 17.6431 14.8531 15.7882C14.8531 15.2274 14.8951 14.6882 14.979 14.1706C15.0629 13.6098 15.2308 12.9627 15.4825 12.2294C15.7343 11.4961 16.0909 10.5255 16.5524 9.31765L20.2028 0H26.4336Z" fill="#3D7AFF"/>
</svg>
