<svg width="22" height="23" viewBox="0 0 22 23" fill="none" xmlns="http://www.w3.org/2000/svg">
<path d="M15.8588 16.9271C15.8588 16.4659 15.7817 16.0559 15.6274 15.6972C15.4842 15.3385 15.2253 15.0105 14.8507 14.7132C14.4761 14.416 13.9472 14.129 13.2641 13.8523C12.592 13.5653 11.7327 13.2732 10.686 12.9759C9.54016 12.648 8.48247 12.2841 7.51292 11.8844C6.55439 11.4744 5.71705 11.0029 5.0009 10.4699C4.28476 9.92669 3.72837 9.30659 3.33173 8.60963C2.9351 7.90241 2.73678 7.08757 2.73678 6.16511C2.73678 5.2529 2.9406 4.42268 3.34826 3.67447C3.76693 2.92625 4.35637 2.28053 5.11659 1.7373C5.88782 1.18382 6.79677 0.758467 7.84345 0.46123C8.89012 0.153743 10.047 0 11.314 0C13.0989 0 14.6358 0.307487 15.9249 0.92246C17.225 1.53743 18.2221 2.36252 18.9162 3.39773C19.6213 4.43293 19.9739 5.57576 19.9739 6.8262H15.8588C15.8588 6.08824 15.688 5.43739 15.3465 4.87366C15.0159 4.29969 14.5091 3.84871 13.826 3.52072C13.1539 3.19274 12.3001 3.02874 11.2644 3.02874C10.2839 3.02874 9.46855 3.16711 8.81851 3.44385C8.16847 3.72059 7.68369 4.0947 7.36418 4.56618C7.04467 5.03766 6.88492 5.57063 6.88492 6.16511C6.88492 6.58534 6.98958 6.9697 7.19892 7.31818C7.40825 7.65642 7.72776 7.97415 8.15745 8.27139C8.58714 8.55838 9.127 8.82999 9.77704 9.08623C10.4271 9.34247 11.1928 9.58846 12.0742 9.8242C13.4074 10.1932 14.5697 10.6032 15.5613 11.0541C16.5529 11.4949 17.3792 11.9971 18.0403 12.5608C18.7013 13.1246 19.1971 13.7652 19.5276 14.4826C19.8582 15.1898 20.0234 15.9944 20.0234 16.8964C20.0234 17.8393 19.8196 18.6901 19.412 19.4485C19.0043 20.1967 18.4204 20.8373 17.6602 21.3703C16.911 21.893 16.0075 22.2979 14.9498 22.5849C13.9031 22.8616 12.7353 23 11.4462 23C10.2894 23 9.14904 22.8565 8.02524 22.5695C6.91246 22.2825 5.89884 21.8469 4.98438 21.2627C4.06991 20.6682 3.34275 19.9303 2.80288 19.0488C2.26302 18.1571 1.99309 17.1168 1.99309 15.9278H6.14123C6.14123 16.6555 6.27344 17.2756 6.53786 17.7881C6.8133 18.3006 7.19341 18.7208 7.67818 19.0488C8.16296 19.3665 8.72486 19.6023 9.36388 19.756C10.0139 19.9098 10.708 19.9866 11.4462 19.9866C12.4158 19.9866 13.2256 19.8585 13.8756 19.6023C14.5367 19.346 15.0325 18.9873 15.363 18.5261C15.6935 18.0648 15.8588 17.5319 15.8588 16.9271Z" fill="#3D7AFF"/>
<path d="M22 12.0658V14.4273H0V12.0658H22Z" fill="#3D7AFF"/>
</svg>
