<svg width="21" height="28" viewBox="0 0 21 28" fill="none" xmlns="http://www.w3.org/2000/svg">
<path d="M15.1231 0H19.041V15.5148C19.041 17.2794 18.6649 18.757 17.9127 19.9476C17.1604 21.1382 16.1366 22.0364 14.841 22.6424C13.556 23.2377 12.1194 23.5353 10.5313 23.5353C8.89104 23.5353 7.42836 23.2377 6.14328 22.6424C4.85821 22.0364 3.84478 21.1382 3.10299 19.9476C2.37164 18.757 2.00597 17.2794 2.00597 15.5148V0H5.92388V15.5148C5.92388 16.631 6.11194 17.5505 6.48806 18.2733C6.86418 18.9856 7.39702 19.5118 8.08657 19.8519C8.77612 20.1921 9.59105 20.3622 10.5313 20.3622C11.4716 20.3622 12.2813 20.1921 12.9604 19.8519C13.65 19.5118 14.1828 18.9856 14.559 18.2733C14.9351 17.5505 15.1231 16.631 15.1231 15.5148V0Z" fill="#3D7AFF"/>
<path d="M0 26.4055H21V28H0V26.4055Z" fill="#3D7AFF"/>
</svg>
